<svg xmlns="http://www.w3.org/2000/svg" fill-rule="evenodd" clip-rule="evenodd" viewBox="0 0 703 337"><path fill="none" stroke="#d3d3d3" d="M447.515 144h10q10 0 10 10v61.466q0 9.534-9.535 9.534h-29.534 29.534q9.535 0 9.535-9.534V154q0-10-10-10zm0-4 10 4-10 4m-9.069 73v8"/><text x="450.515" y="141" font-family="&quot;ArialMT&quot;,&quot;Arial&quot;,sans-serif" font-size="14">*</text><text x="431.446" y="222" font-family="&quot;ArialMT&quot;,&quot;Arial&quot;,sans-serif" font-size="14">1</text><path fill="none" stroke="#d3d3d3" d="M504.515 80h-57zm0-4-10 4 10 4m-47-8v8"/><text x="493.51" y="77" font-family="&quot;ArialMT&quot;,&quot;Arial&quot;,sans-serif" font-size="14">*</text><text x="450.515" y="77" font-family="&quot;ArialMT&quot;,&quot;Arial&quot;,sans-serif" font-size="14">1</text><path fill="none" stroke="#d3d3d3" d="M680 269h10q10 0 10-10V58q0-10-10-10h-10 10q10 0 10 10v201q0 10-10 10zm0-4 10 4-10 4m10-229v8"/><text x="683" y="266" font-family="&quot;ArialMT&quot;,&quot;Arial&quot;,sans-serif" font-size="14">*</text><text x="683" y="45" font-family="&quot;ArialMT&quot;,&quot;Arial&quot;,sans-serif" font-size="14">1</text><path fill="none" stroke="#d3d3d3" d="M190.866 80h62.685zm10-4v8m42.685-8v8"/><text x="193.866" y="77" font-family="&quot;ArialMT&quot;,&quot;Arial&quot;,sans-serif" font-size="14">1</text><text x="242.546" y="77" font-family="&quot;ArialMT&quot;,&quot;Arial&quot;,sans-serif" font-size="14">1</text><path fill="#5ba34f" fill-rule="nonzero" d="M253.551 177h174.895v32H253.551z"/><text x="263.551" y="196.25" fill="#fff" font-family="&quot;Arial-BoldMT&quot;,&quot;Arial&quot;,sans-serif" font-size="13" font-weight="700">customer</text><path fill="#f2f2f2" fill-rule="nonzero" d="M253.551 209h174.895v32H253.551z"/><text x="263.551" y="228.25" fill="#6f6f6f" font-family="&quot;Arial-BoldMT&quot;,&quot;Arial&quot;,sans-serif" font-size="13" font-weight="700">id</text><path fill="#6f6f6f" fill-rule="nonzero" d="M286.307 219.234a2.966 2.966 0 0 1 2.949 2.953 2.967 2.967 0 0 1-2.953 2.953 3 3 0 0 1-1.096-.211l-.868.868h-.657v.984h-.984v.985h-1.969v-1.97l2.752-2.75a3 3 0 0 1-.127-.857 2.967 2.967 0 0 1 2.953-2.953m0-.984a3.956 3.956 0 0 0-3.9 4.477l-2.518 2.518a.5.5 0 0 0-.144.348v2.665c0 .272.22.492.492.492h2.953c.272 0 .492-.22.492-.492v-.492h.493c.271 0 .492-.22.492-.493v-.41l.821-.823q.403.085.82.085c2.16 0 3.938-1.777 3.938-3.938 0-2.16-1.777-3.938-3.938-3.938m0 2.953c0 .54.445.985.985.985a.99.99 0 0 0 .985-.985.99.99 0 0 0-.985-.985.99.99 0 0 0-.985.985"/><path fill="#dedede" fill-rule="nonzero" d="M396.446 215.5h20s2 0 2 2v12s0 2-2 2h-20s-2 0-2-2v-12s0-2 2-2"/><path fill="#6f6f6f" fill-rule="nonzero" d="M405.257 228h-1.168l-4.75-7.56h-.047l.042.69q.024.381.036.819.018.43.018.88V228h-.942v-9h1.162l4.731 7.535h.042l-.03-.61-.035-.855a31 31 0 0 1-.012-.856V219h.953zm9.189 0h-1.168l-4.75-7.56h-.047l.042.69q.024.381.036.819.017.43.017.88V228h-.941v-9h1.162l4.731 7.535h.042l-.03-.61-.035-.855a31 31 0 0 1-.012-.856V219h.953z"/><text x="372.292" y="228.25" fill="#999" font-family="&quot;Arial-BoldMT&quot;,&quot;Arial&quot;,sans-serif" font-size="13" font-weight="700">int</text><path fill="#f2f2f2" fill-rule="nonzero" d="M253.551 241h174.895v32H253.551z"/><text x="263.551" y="260.25" fill="#6f6f6f" font-family="&quot;ArialMT&quot;,&quot;Arial&quot;,sans-serif" font-size="13">name</text><text x="383.991" y="260.25" fill="#999" font-family="&quot;ArialMT&quot;,&quot;Arial&quot;,sans-serif" font-size="13">string</text><path fill="#f2f2f2" fill-rule="nonzero" d="M253.551 273h174.895v32H253.551z"/><text x="263.551" y="292.25" fill="#6f6f6f" font-family="&quot;ArialMT&quot;,&quot;Arial&quot;,sans-serif" font-size="13">balance</text><text x="368.344" y="292.25" fill="#999" font-family="&quot;ArialMT&quot;,&quot;Arial&quot;,sans-serif" font-size="13">numeric</text><path fill="#f2f2f2" fill-rule="nonzero" d="M253.551 305h174.895v32H253.551z"/><text x="263.551" y="324.25" fill="#6f6f6f" font-family="&quot;ArialMT&quot;,&quot;Arial&quot;,sans-serif" font-size="13">isActive</text><text x="369.074" y="324.25" fill="#999" font-family="&quot;ArialMT&quot;,&quot;Arial&quot;,sans-serif" font-size="13">boolean</text><path fill="#5ba34f" fill-rule="nonzero" d="M253.551 32h193.964v32H253.551z"/><text x="263.551" y="51.25" fill="#fff" font-family="&quot;Arial-BoldMT&quot;,&quot;Arial&quot;,sans-serif" font-size="13" font-weight="700">_order</text><path fill="#f2f2f2" fill-rule="nonzero" d="M253.551 64h193.964v32H253.551z"/><text x="263.551" y="83.25" fill="#6f6f6f" font-family="&quot;Arial-BoldMT&quot;,&quot;Arial&quot;,sans-serif" font-size="13" font-weight="700">id</text><path fill="#6f6f6f" fill-rule="nonzero" d="M286.307 74.234a2.966 2.966 0 0 1 2.949 2.953 2.967 2.967 0 0 1-2.953 2.953 3 3 0 0 1-1.096-.211l-.868.868h-.657v.984h-.984v.985h-1.969v-1.97l2.752-2.75a3 3 0 0 1-.127-.857 2.967 2.967 0 0 1 2.953-2.953m0-.984a3.956 3.956 0 0 0-3.9 4.477l-2.518 2.518a.5.5 0 0 0-.144.348v2.665c0 .272.22.492.492.492h2.953c.272 0 .492-.22.492-.492v-.492h.493c.271 0 .492-.22.492-.493v-.41l.821-.823q.403.085.82.085c2.16 0 3.938-1.777 3.938-3.938 0-2.16-1.777-3.938-3.938-3.938m0 2.953c0 .54.445.985.985.985a.99.99 0 0 0 .985-.985.99.99 0 0 0-.985-.985.99.99 0 0 0-.985.985"/><path fill="#dedede" fill-rule="nonzero" d="M415.515 70.5h20s2 0 2 2v12s0 2-2 2h-20s-2 0-2-2v-12s0-2 2-2"/><path fill="#6f6f6f" fill-rule="nonzero" d="M424.326 83h-1.168l-4.75-7.56h-.047l.042.69q.024.381.036.819.017.43.017.88V83h-.941v-9h1.162l4.731 7.535h.042l-.03-.61-.035-.855a31 31 0 0 1-.012-.856V74h.953zm9.189 0h-1.168l-4.75-7.56h-.046l.042.69q.023.381.035.819.018.43.018.88V83h-.941v-9h1.162l4.731 7.535h.042l-.03-.61-.036-.855a31 31 0 0 1-.012-.856V74h.954z"/><text x="391.361" y="83.25" fill="#999" font-family="&quot;Arial-BoldMT&quot;,&quot;Arial&quot;,sans-serif" font-size="13" font-weight="700">int</text><path fill="#f2f2f2" fill-rule="nonzero" d="M253.551 96h193.964v32H253.551z"/><text x="263.551" y="115.25" fill="#6f6f6f" font-family="&quot;ArialMT&quot;,&quot;Arial&quot;,sans-serif" font-size="13">orderDate</text><path fill="#dedede" fill-rule="nonzero" d="M415.515 102.5h20s2 0 2 2v12s0 2-2 2h-20s-2 0-2-2v-12s0-2 2-2"/><path fill="#6f6f6f" fill-rule="nonzero" d="M424.326 115h-1.168l-4.75-7.56h-.047l.042.69q.024.381.036.819.017.43.017.88V115h-.941v-9h1.162l4.731 7.535h.042l-.03-.61-.035-.855a31 31 0 0 1-.012-.856V106h.953zm9.189 0h-1.168l-4.75-7.56h-.046l.042.69q.023.381.035.819.018.43.018.88V115h-.941v-9h1.162l4.731 7.535h.042l-.03-.61-.036-.855a31 31 0 0 1-.012-.856V106h.954z"/><text x="382.404" y="115.25" fill="#999" font-family="&quot;ArialMT&quot;,&quot;Arial&quot;,sans-serif" font-size="13">date</text><path fill="#f2f2f2" fill-rule="nonzero" d="M253.551 128h193.964v32H253.551z"/><text x="263.551" y="147.25" fill="#6f6f6f" font-family="&quot;ArialMT&quot;,&quot;Arial&quot;,sans-serif" font-size="13">customerId</text><text x="421.627" y="147.25" fill="#999" font-family="&quot;ArialMT&quot;,&quot;Arial&quot;,sans-serif" font-size="13">int</text><path fill="#5ba34f" fill-rule="nonzero" d="M504.515 0H680v32H504.515z"/><text x="514.515" y="19.25" fill="#fff" font-family="&quot;Arial-BoldMT&quot;,&quot;Arial&quot;,sans-serif" font-size="13" font-weight="700">orderLine</text><path fill="#f2f2f2" fill-rule="nonzero" d="M504.515 32H680v32H504.515z"/><text x="514.515" y="51.25" fill="#6f6f6f" font-family="&quot;Arial-BoldMT&quot;,&quot;Arial&quot;,sans-serif" font-size="13" font-weight="700">id</text><path fill="#6f6f6f" fill-rule="nonzero" d="M537.271 42.234a2.966 2.966 0 0 1 2.949 2.953 2.967 2.967 0 0 1-2.953 2.953 3 3 0 0 1-1.096-.211l-.868.868h-.657v.984h-.984v.985h-1.969v-1.97l2.752-2.75a3 3 0 0 1-.127-.857 2.967 2.967 0 0 1 2.953-2.953m0-.984a3.956 3.956 0 0 0-3.9 4.477l-2.518 2.518a.5.5 0 0 0-.144.348v2.665c0 .272.22.492.492.492h2.953c.272 0 .492-.22.492-.492v-.492h.493c.271 0 .492-.22.492-.493v-.41l.821-.823q.403.085.82.085c2.16 0 3.938-1.777 3.938-3.938 0-2.16-1.777-3.938-3.938-3.938m0 2.953c0 .54.445.985.985.985a.99.99 0 0 0 .985-.985.99.99 0 0 0-.985-.985.99.99 0 0 0-.985.985"/><text x="651.846" y="51.25" fill="#999" font-family="&quot;Arial-BoldMT&quot;,&quot;Arial&quot;,sans-serif" font-size="13" font-weight="700">int</text><path fill="#f2f2f2" fill-rule="nonzero" d="M504.515 64H680v32H504.515z"/><text x="514.515" y="83.25" fill="#6f6f6f" font-family="&quot;ArialMT&quot;,&quot;Arial&quot;,sans-serif" font-size="13">orderId</text><text x="654.112" y="83.25" fill="#999" font-family="&quot;ArialMT&quot;,&quot;Arial&quot;,sans-serif" font-size="13">int</text><path fill="#f2f2f2" fill-rule="nonzero" d="M504.515 96H680v32H504.515z"/><text x="514.515" y="115.25" fill="#6f6f6f" font-family="&quot;ArialMT&quot;,&quot;Arial&quot;,sans-serif" font-size="13">product</text><text x="635.545" y="115.25" fill="#999" font-family="&quot;ArialMT&quot;,&quot;Arial&quot;,sans-serif" font-size="13">string</text><path fill="#f2f2f2" fill-rule="nonzero" d="M504.515 128H680v32H504.515z"/><text x="514.515" y="147.25" fill="#6f6f6f" font-family="&quot;ArialMT&quot;,&quot;Arial&quot;,sans-serif" font-size="13">amount</text><text x="619.898" y="147.25" fill="#999" font-family="&quot;ArialMT&quot;,&quot;Arial&quot;,sans-serif" font-size="13">numeric</text><path fill="#5ba34f" fill-rule="nonzero" d="M511.114 189H680v32H511.114z"/><text x="521.114" y="208.25" fill="#fff" font-family="&quot;Arial-BoldMT&quot;,&quot;Arial&quot;,sans-serif" font-size="13" font-weight="700">package</text><path fill="#f2f2f2" fill-rule="nonzero" d="M511.114 221H680v32H511.114z"/><text x="521.114" y="240.25" fill="#6f6f6f" font-family="&quot;Arial-BoldMT&quot;,&quot;Arial&quot;,sans-serif" font-size="13" font-weight="700">packageId</text><path fill="#6f6f6f" fill-rule="nonzero" d="M597.908 231.234a2.966 2.966 0 0 1 2.949 2.953 2.967 2.967 0 0 1-2.953 2.953 3 3 0 0 1-1.096-.211l-.869.868h-.656v.984h-.984v.985h-1.97v-1.97l2.752-2.75a3 3 0 0 1-.127-.857 2.967 2.967 0 0 1 2.953-2.953m0-.984a3.956 3.956 0 0 0-3.9 4.477l-2.518 2.518a.5.5 0 0 0-.145.348v2.665c0 .272.22.492.493.492h2.953c.272 0 .492-.22.492-.492v-.492h.492c.272 0 .492-.22.492-.493v-.41l.822-.823q.4.085.819.085c2.16 0 3.938-1.777 3.938-3.938 0-2.16-1.777-3.938-3.938-3.938m0 2.953c0 .54.444.985.985.985a.99.99 0 0 0 .985-.984.99.99 0 0 0-.985-.985.99.99 0 0 0-.985.985"/><text x="651.845" y="240.25" fill="#999" font-family="&quot;Arial-BoldMT&quot;,&quot;Arial&quot;,sans-serif" font-size="13" font-weight="700">int</text><path fill="#f2f2f2" fill-rule="nonzero" d="M511.114 253H680v32H511.114z"/><text x="521.114" y="272.25" fill="#6f6f6f" font-family="&quot;ArialMT&quot;,&quot;Arial&quot;,sans-serif" font-size="13">lineId</text><text x="654.112" y="272.25" fill="#999" font-family="&quot;ArialMT&quot;,&quot;Arial&quot;,sans-serif" font-size="13">int</text><path fill="#f2f2f2" fill-rule="nonzero" d="M511.114 285H680v32H511.114z"/><text x="521.114" y="304.25" fill="#6f6f6f" font-family="&quot;ArialMT&quot;,&quot;Arial&quot;,sans-serif" font-size="13">sscc</text><text x="635.545" y="304.25" fill="#999" font-family="&quot;ArialMT&quot;,&quot;Arial&quot;,sans-serif" font-size="13">string</text><path fill="#5ba34f" fill-rule="nonzero" d="M0 0h190.866v32H0z"/><text x="10" y="19.25" fill="#fff" font-family="&quot;Arial-BoldMT&quot;,&quot;Arial&quot;,sans-serif" font-size="13" font-weight="700">deliveryAddress</text><path fill="#f2f2f2" fill-rule="nonzero" d="M0 32h190.866v32H0z"/><text x="10" y="51.25" fill="#6f6f6f" font-family="&quot;Arial-BoldMT&quot;,&quot;Arial&quot;,sans-serif" font-size="13" font-weight="700">id</text><path fill="#6f6f6f" fill-rule="nonzero" d="M32.756 42.234a2.966 2.966 0 0 1 2.949 2.953 2.967 2.967 0 0 1-2.953 2.953 3 3 0 0 1-1.096-.211l-.868.868h-.657v.984h-.984v.985h-1.969v-1.97l2.752-2.75a3 3 0 0 1-.127-.857 2.967 2.967 0 0 1 2.953-2.953m0-.984a3.956 3.956 0 0 0-3.9 4.477l-2.518 2.518a.5.5 0 0 0-.144.348v2.665c0 .272.22.492.492.492h2.953c.272 0 .492-.22.492-.492v-.492h.493c.271 0 .492-.22.492-.493v-.41l.821-.823q.403.085.82.085c2.16 0 3.938-1.777 3.938-3.938 0-2.16-1.777-3.938-3.938-3.938m0 2.953c0 .54.445.985.985.985a.99.99 0 0 0 .985-.985.99.99 0 0 0-.985-.985.99.99 0 0 0-.985.985"/><text x="162.711" y="51.25" fill="#999" font-family="&quot;Arial-BoldMT&quot;,&quot;Arial&quot;,sans-serif" font-size="13" font-weight="700">int</text><path fill="#f2f2f2" fill-rule="nonzero" d="M0 64h190.866v32H0z"/><text x="10" y="83.25" fill="#6f6f6f" font-family="&quot;ArialMT&quot;,&quot;Arial&quot;,sans-serif" font-size="13">orderId</text><text x="164.978" y="83.25" fill="#999" font-family="&quot;ArialMT&quot;,&quot;Arial&quot;,sans-serif" font-size="13">int</text><path fill="#f2f2f2" fill-rule="nonzero" d="M0 96h190.866v32H0z"/><text x="10" y="115.25" fill="#6f6f6f" font-family="&quot;ArialMT&quot;,&quot;Arial&quot;,sans-serif" font-size="13">name</text><text x="146.411" y="115.25" fill="#999" font-family="&quot;ArialMT&quot;,&quot;Arial&quot;,sans-serif" font-size="13">string</text><path fill="#f2f2f2" fill-rule="nonzero" d="M0 128h190.866v32H0z"/><text x="10" y="147.25" fill="#6f6f6f" font-family="&quot;ArialMT&quot;,&quot;Arial&quot;,sans-serif" font-size="13">street</text><text x="146.411" y="147.25" fill="#999" font-family="&quot;ArialMT&quot;,&quot;Arial&quot;,sans-serif" font-size="13">string</text><path fill="#f2f2f2" fill-rule="nonzero" d="M0 160h190.866v32H0z"/><text x="10" y="179.25" fill="#6f6f6f" font-family="&quot;ArialMT&quot;,&quot;Arial&quot;,sans-serif" font-size="13">postalCode</text><text x="146.411" y="179.25" fill="#999" font-family="&quot;ArialMT&quot;,&quot;Arial&quot;,sans-serif" font-size="13">string</text><path fill="#f2f2f2" fill-rule="nonzero" d="M0 192h190.866v32H0z"/><text x="10" y="211.25" fill="#6f6f6f" font-family="&quot;ArialMT&quot;,&quot;Arial&quot;,sans-serif" font-size="13">postalPlace</text><text x="146.411" y="211.25" fill="#999" font-family="&quot;ArialMT&quot;,&quot;Arial&quot;,sans-serif" font-size="13">string</text><path fill="#f2f2f2" fill-rule="nonzero" d="M0 224h190.866v32H0z"/><text x="10" y="243.25" fill="#6f6f6f" font-family="&quot;ArialMT&quot;,&quot;Arial&quot;,sans-serif" font-size="13">countryCode</text><text x="146.411" y="243.25" fill="#999" font-family="&quot;ArialMT&quot;,&quot;Arial&quot;,sans-serif" font-size="13">string</text></svg>
