<svg xmlns="http://www.w3.org/2000/svg" fill-rule="evenodd" stroke-miterlimit="1" clip-rule="evenodd" viewBox="0 0 100 100"><path fill="none" d="M-26-19.2h247.36v247.087H-26z"/><path fill="#fcd7ab" fill-rule="nonzero" stroke="#f7931e" stroke-width="3.5" d="m103.31 92.773 32.73-56.692c1.455-2.528 4.748-3.255 7.162-1.628a78.5 78.5 0 0 1 11.685 9.623 78.4 78.4 0 0 1 9.623 11.685c1.627 2.422.892 5.707-1.627 7.162l-56.693 32.73c-1.868 1.08-3.953-1.012-2.88-2.88"/><path fill="#fbc98f" fill-rule="nonzero" stroke="#f7931e" stroke-width="3.5" d="M99.38 91.723V26.255c0-2.895 2.445-5.197 5.333-4.995a78.7 78.7 0 0 1 14.985 2.49 78.6 78.6 0 0 1 14.227 5.333c2.595 1.275 3.562 4.492 2.115 6.997l-32.73 56.692c-1.08 1.868-3.93 1.103-3.93-1.05Z"/><path fill="#fde4c7" fill-rule="nonzero" stroke="#f7931e" stroke-width="3.5" d="M95.45 92.773 62.72 36.081c-1.448-2.505-.48-5.723 2.115-6.997a78 78 0 0 1 14.227-5.332 78 78 0 0 1 14.985-2.49c2.888-.195 5.333 2.108 5.333 4.995v65.46c0 2.153-2.85 2.917-3.93 1.05z"/><path fill="#fbc98f" fill-rule="nonzero" stroke="#f7931e" stroke-width="3.5" d="m92.57 95.645-56.692-32.73c-2.528-1.455-3.255-4.748-1.627-7.163a78.5 78.5 0 0 1 21.307-21.308c2.422-1.627 5.707-.892 7.163 1.627l32.73 56.692c1.08 1.868-1.013 3.953-2.88 2.88"/><path fill="#f9ae56" fill-rule="nonzero" stroke="#f7931e" stroke-width="3.5" d="M91.528 99.575H26.06c-2.895 0-5.197-2.445-4.995-5.333a78.6 78.6 0 0 1 2.49-14.985 78.6 78.6 0 0 1 5.333-14.228c1.275-2.595 4.492-3.562 6.998-2.115l56.693 32.73c1.868 1.08 1.102 3.93-1.05 3.93Z"/><path fill="#fcd7ab" fill-rule="nonzero" stroke="#f7931e" stroke-width="3.5" d="m103.303 106.378 32.73 56.693c1.455 2.528 4.748 3.255 7.162 1.627a78.5 78.5 0 0 0 11.685-9.623 78.4 78.4 0 0 0 9.623-11.685c1.627-2.422.892-5.708-1.627-7.162l-56.693-32.73c-1.868-1.08-3.953 1.012-2.88 2.88"/><path fill="#f9ae56" fill-rule="nonzero" stroke="#f7931e" stroke-width="3.5" d="m92.563 103.505-56.692 32.73c-2.528 1.455-3.255 4.748-1.627 7.162a78.5 78.5 0 0 0 21.307 21.308c2.422 1.627 5.707.893 7.163-1.627l32.73-56.692c1.08-1.868-1.013-3.953-2.88-2.88"/><path fill="#f8a13a" fill-rule="nonzero" stroke="#f7931e" stroke-width="3.5" d="M91.52 99.575H26.052c-2.895 0-5.197 2.445-4.995 5.333a78.6 78.6 0 0 0 2.49 14.985 78.6 78.6 0 0 0 5.333 14.227c1.275 2.595 4.492 3.562 6.998 2.115l56.693-32.73c1.868-1.08 1.102-3.93-1.05-3.93Z"/><path fill="#f7931e" d="M99.373.578c54.64 0 99 44.36 99 99s-44.36 99-99 99-99-44.36-99-99 44.36-99 99-99m0 14c-46.913 0-85 38.087-85 85s38.087 85 85 85 85-38.087 85-85-38.087-85-85-85"/><path fill="none" d="M0 0h100v100H0z"/></svg>